PathFileType	4	(X/Y/Z)	Run_200 02
DataRate	CameraRate	NumFrames	NumMarkers	Units	OrigDataRate	OrigDataStartFrame	OrigNumFrames
100	100	4	45	mm	100	140	137
Frame#	Time	RASI			LPSI			RTH1			RTH2			RTH3			LTH1			LTH2			LTH3			RTB1			RTB2			RTB3			RLMAL			RMMAL			LTB1			LTB2			LTB3			RCAL			RTOE			RMT5			LCAL			LTOE			LMT5			LACR			RACR			CLAV			C7			LPSH			RUA1			RUA2			RUA3			RLEL			RMEL			LUA1			LUA2			LUA3			LLEL			LMEL			RFAsuperior			RFAradius			LFAsuperior			LFAradius			LFAulna			LASI			RFAulna			RPSI			
		X1	Y1	Z1	X2	Y2	Z2	X3	Y3	Z3	X4	Y4	Z4	X5	Y5	Z5	X6	Y6	Z6	X7	Y7	Z7	X8	Y8	Z8	X9	Y9	Z9	X10	Y10	Z10	X11	Y11	Z11	X12	Y12	Z12	X13	Y13	Z13	X14	Y14	Z14	X15	Y15	Z15	X16	Y16	Z16	X17	Y17	Z17	X18	Y18	Z18	X19	Y19	Z19	X20	Y20	Z20	X21	Y21	Z21	X22	Y22	Z22	X23	Y23	Z23	X24	Y24	Z24	X25	Y25	Z25	X26	Y26	Z26	X27	Y27	Z27	X28	Y28	Z28	X29	Y29	Z29	X30	Y30	Z30	X31	Y31	Z31	X32	Y32	Z32	X33	Y33	Z33	X34	Y34	Z34	X35	Y35	Z35	X36	Y36	Z36	X37	Y37	Z37	X38	Y38	Z38	X39	Y39	Z39	X40	Y40	Z40	X41	Y41	Z41	X42	Y42	Z42	X43	Y43	Z43	X44	Y44	Z44	X45	Y45	Z45	

137	1.56	1036.147807	1075.00718	-377.901641	885.240873	1093.242889	-553.817095	1030.850841	818.313503	-335.419567	1128.747596	784.504786	-363.22018	1101.403745	665.8232	-360.795341	943.0249	842.024854	-671.934703	1000.053379	725.99437	-658.289022	931.364612	634.049248	-657.557476	1159.579087	429.897828	-389.337191	1103.510094	388.126497	-346.06151	1098.284452	258.201133	-379.535871	1031.601271	156.498927	-357.924038	1064.927703	167.180428	-436.589705	899.1754100000001	395.574323	-629.024541	778.011538	347.582362	-663.011707	786.485421	239.187921	-620.134771	976.711548	132.748971	-425.902753	1189.9444	91.349756	-373.329731	1113.773752	84.59985399999999	-309.374206	614.989638	147.204621	-585.39986	817.58231	69.39381400000001	-604.517822	760.691447	62.764573	-672.7011199999999	1020.868093	1562.102796	-682.6164209999999	998.861351	1551.570169	-374.264618	1080.065777	1488.624453	-496.823224	966.571001	1580.003454	-532.295003	946.37602	1515.338559	-706.64922	917.62962	1436.769029	-271.081335	832.348244	1400.150576	-293.060802	821.259339	1357.063476	-237.147797	808.942093	1296.331239	-195.564638	789.130181	1272.12356	-278.645025	985.781729	1415.494194	-756.15744	948.293078	1318.901589	-741.431438	990.6659110000001	1279.789077	-788.231353	1027.289627	1208.099541	-798.718666	980.248029	1191.417895	-716.9362190000001	822.452184	1214.502624	-183.918939	971.664415	1091.979027	-215.148851	1094.729579	1218.618853	-727.039115	1152.037611	1368.422775	-653.744129	1194.036528	1316.040543	-639.496041	1058.721455	1055.216715	-609.245145	937.137788	1057.488347	-169.567615	877.255661	1091.610203	-465.686718	
138	1.57	1037.784155	1079.91138	-377.071224	887.4983120000001	1098.040034	-553.048749	1029.400292	821.7765470000001	-333.108066	1126.245705	786.787298	-359.254056	1096.881615	668.401888	-357.194092	941.097156	847.752052	-671.325504	995.052768	730.514084	-657.7550660000001	924.207907	640.303962	-657.6452829999999	1165.13826	431.78665	-384.527243	1113.069562	385.331431	-340.831371	1117.560657	255.676123	-376.095419	1059.599903	148.588199	-354.856613	1090.804648	162.969644	-433.716196	887.380253	401.850347	-629.790116	765.50455	355.205404	-662.622963	773.88252	246.021034	-620.95128	1005.826094	121.27644	-422.516198	1222.468762	96.491716	-372.56947	1147.436848	83.223938	-307.377245	602.861054	157.921617	-585.28099	797.733164	68.983745	-604.60371	743.011619	64.673655	-673.202902	1021.774611	1567.53228	-679.703393	998.284271	1556.246431	-372.084163	1080.41424	1493.830922	-494.085586	966.908903	1584.775667	-530.010013	947.554717	1520.774154	-704.611169	914.520533	1442.093477	-270.714538	829.880556	1405.477701	-295.490441	816.954917	1362.501934	-239.851833	803.348685	1301.632426	-198.680102	786.219758	1277.306406	-282.392481	988.4096	1421.095381	-753.58425	950.507645	1324.754244	-739.963609	994.282141	1285.348268	-785.141192	1031.151366	1213.438249	-794.124017	981.520386	1197.043133	-713.706988	817.202547	1219.920014	-186.758024	968.904932	1099.061753	-214.35378	1095.860422	1226.165754	-720.355013	1147.134596	1377.767162	-646.353959	1190.439049	1326.659921	-631.178377	1060.889412	1059.999579	-607.8014449999999	933.172316	1063.796764	-170.243501	879.344289	1096.469496	-464.822028	
139	1.58	1039.602851	1084.275597	-376.414961	889.789171	1102.21925	-552.14429	1027.398766	824.360139	-331.136152	1123.117316	787.704425	-354.948571	1091.603499	669.849002	-353.39068	939.760703	853.205878	-670.785841	990.966096	734.845043	-657.168942	918.248187	646.1634749999999	-657.4085700000001	1169.581353	433.361376	-380.204273	1122.082828	382.779124	-336.157575	1135.507769	254.166264	-373.080046	1086.609326	142.351824	-352.141281	1115.087362	160.142571	-431.347841	877.0276689999999	407.92375	-630.1577119999999	754.386615	362.768244	-661.792638	762.415422	252.846411	-621.614059	1033.481613	111.70627	-418.453845	1252.541723	103.551494	-373.301464	1180.093298	83.731562	-306.401106	591.888961	168.977854	-584.970058	778.408248	68.95855899999999	-604.618697	725.625054	67.052983	-673.45866	1022.613677	1572.616127	-676.752054	997.919706	1560.320679	-369.566263	1080.870564	1498.440112	-491.213549	967.29928	1589.021182	-527.394592	948.623964	1525.845616	-702.200736	911.772796	1446.593627	-270.077257	827.866193	1409.870825	-297.823405	813.053777	1367.022802	-242.513731	798.311231	1305.910461	-201.840976	783.264286	1281.545091	-285.900556	990.55444	1426.385092	-750.937227	952.318821	1330.399044	-738.663543	997.448573	1290.716503	-782.276731	1034.18407	1218.52566	-789.88417	982.053949	1202.407165	-711.001648	812.594284	1224.283061	-189.761917	966.977898	1105.300898	-213.880601	1096.302331	1232.705375	-714.354453	1142.621485	1385.392559	-639.213332	1186.858592	1335.254797	-623.330057	1063.009483	1064.600397	-606.569229	930.0141139999999	1069.254915	-171.242399	881.679219	1100.707759	-463.857807	
140	1.59	1041.602833	1087.938071	-375.967098	892.0419470000001	1105.705167	-551.216773	1024.833034	826.22941	-329.232432	1119.6675	787.476226	-350.386911	1085.927911	670.2120650000001	-349.416789	939.04056	858.044067	-670.1765789999999	987.895343	738.682405	-656.271965	913.7311079999999	651.258121	-656.701027	1172.951801	434.691914	-376.41595	1130.184028	380.779382	-332.000277	1151.498436	253.665183	-370.546447	1111.429532	137.960083	-349.829372	1137.32252	158.409922	-429.299701	868.363657	413.459884	-630.1751420000001	744.852241	370.058776	-660.622684	752.086621	259.445849	-622.009513	1058.716716	104.203734	-414.12096	1278.937695	112.254279	-375.548872	1210.352755	85.97256899999999	-306.81029	581.9278430000001	180.356812	-584.4956100000001	759.72935	69.43593300000001	-604.499609	708.579728	70.04527	-673.3380110000001	1023.319908	1577.14475	-673.588376	997.7174639999999	1563.671379	-366.755722	1081.37828	1502.343819	-488.212968	967.678705	1592.598294	-524.375071	949.5334350000001	1530.36093	-699.415934	909.403087	1450.164104	-269.185581	826.2438090000001	1413.338468	-299.838669	809.644351	1370.477513	-245.101853	793.910118	1309.103356	-204.891907	779.830834	1284.963899	-288.958137	992.238562	1431.232481	-748.261307	953.760384	1335.728883	-737.237714	999.969376	1295.782702	-779.637433	1036.385172	1223.281761	-786.137658	981.8330979999999	1207.321286	-708.784626	808.712004	1227.552667	-192.778021	965.891463	1110.611546	-213.684958	1096.181583	1238.079704	-709.115012	1138.820994	1391.183045	-632.383629	1183.391276	1341.652014	-615.676197	1064.94374	1068.753902	-605.652106	927.732457	1073.797426	-172.521892	884.1167349999999	1104.209769	-462.860621	
